<svg width="162" height="162" viewBox="0 0 162 162" fill="none" xmlns="http://www.w3.org/2000/svg">
<circle cx="81" cy="81" r="81" fill="#E5E5E5" fill-opacity="0.2"/>
<path fill-rule="evenodd" clip-rule="evenodd" d="M81.7168 149.097C118.93 149.097 149.097 118.93 149.097 81.7168C149.097 44.5036 118.93 14.3363 81.7168 14.3363C44.5036 14.3363 14.3363 44.5036 14.3363 81.7168C14.3363 118.93 44.5036 149.097 81.7168 149.097ZM48.0266 51.3957V111.701H115.126V64.7033H81.4922V51.3957H48.0266ZM108.332 71.666V105.075C99.4042 105.075 90.7009 105.075 81.8291 105.132V98.5059H88.1741V91.824H81.773V85.0298H88.118V78.2356H81.7168V71.666H108.332ZM54.8208 64.5349V58.1337H61.2219V64.5349H54.8208ZM74.698 64.5349H68.1846V58.1899H74.698V64.5349ZM61.1658 78.0671H54.7646V71.666H61.1658V78.0671ZM74.698 77.9548H68.1846V71.6098H74.698V77.9548ZM54.7646 85.1421H61.2781V91.4871H54.7646V85.1421ZM68.2969 91.5432V85.0298H74.6419V91.5432H68.2969ZM61.2219 104.907H54.7085V98.6182H61.2219V104.907ZM74.6419 98.6182V105.132H68.2969V98.6182H74.6419ZM101.65 78.348V84.7491H95.1929V78.348H101.65ZM101.706 98.2251V91.9363H95.1929V98.2251H101.706Z" fill="white"/>
</svg>
